<svg xmlns="http://www.w3.org/2000/svg" viewBox="0 0 640 420">
 <rect width="640" height="420" rx="26" fill="#e8f6ec"/>
 <rect y="292" width="640" height="128" fill="#cfead3"/>
 <path d="M0 300 Q150 235 300 295 T640 280V420H0Z" fill="#a9dba9"/>
 <g><path d="M470 180v145" stroke="#79543a" stroke-width="22"/><circle cx="470" cy="130" r="82" fill="#54aa6c"/><circle cx="415" cy="160" r="55" fill="#3e9a5e"/><circle cx="530" cy="160" r="60" fill="#69b978"/></g>
 <g stroke="#193b5b" stroke-width="4"><circle cx="230" cy="205" r="27" fill="#9b6648"/><path d="M203 202q26-36 54 0" fill="#202a32"/><path d="M205 235q26-15 52 0l20 78h-92z" fill="#3e86c5"/><path d="M225 313l-20 56M245 313l20 56" fill="none"/></g>
 <path d="M105 337v-62" stroke="#79543a" stroke-width="9"/><path d="M105 296q-32-27-48-3 22 28 48 17M105 278q30-29 48-6-19 32-48 22" fill="#2f9c60"/>
 <text x="32" y="55" font-family="Arial" font-size="25" font-weight="800" fill="#123454">Tree Plantation</text>
</svg>
